<?xml version="1.0" encoding="UTF-8" standalone="no"?>
<!DOCTYPE svg PUBLIC "-//W3C//DTD SVG 1.1//EN" "http://www.w3.org/Graphics/SVG/1.1/DTD/svg11.dtd">
<svg width="100%" height="100%" viewBox="0 0 301 68" version="1.1" xmlns="http://www.w3.org/2000/svg" xmlns:xlink="http://www.w3.org/1999/xlink" xml:space="preserve" xmlns:serif="http://www.serif.com/" style="fill-rule:evenodd;clip-rule:evenodd;stroke-linejoin:round;stroke-miterlimit:2;">
    <path d="M64.6,16.2c-1.6,-6.3 -6.5,-11.2 -12.8,-12.8c-11.8,-1.9 -23.8,-1.9 -35.6,0c-6.3,1.6 -11.2,6.5 -12.8,12.8c-1.9,11.8 -1.9,23.8 0,35.6c1.6,6.3 6.5,11.2 12.8,12.8c11.8,1.9 23.8,1.9 35.6,0c6.3,-1.6 11.2,-6.5 12.8,-12.8c1.9,-11.8 1.9,-23.8 0,-35.6Zm-31.3,20.1c-2.8,4.4 -6.6,8.2 -11.1,11c-1.5,0.9 -3.3,0.9 -4.8,0.1c-1.5,-0.8 -2.4,-2.3 -2.5,-4c0,-1.7 0.9,-3.3 2.4,-4.1c2.3,-1.4 4.4,-3.2 6.1,-5.3c-1.8,-2.1 -3.8,-3.8 -6.1,-5.3c-2.3,-1.3 -3,-4.2 -1.7,-6.4c1.3,-2.2 4.3,-2.9 6.5,-1.6c4.5,2.8 8.2,6.5 11.1,10.9c1,1.4 1,3.3 0.1,4.7Zm15.9,9.7l-11.4,0c-2.1,0 -3.8,-1 -3.8,-3c0,-2 1.7,-3 3.8,-3l11.4,0c2.1,0 3.8,1 3.8,3c0,2 -1.7,3 -3.8,3Z" style="fill:#206bc4;fill-rule:nonzero;"/>
    <g transform="matrix(1.00278,0,0,1.00278,3.39445,22.7897)">
        <g transform="matrix(48,0,0,48,86.6708,28.7491)">
            <path d="M0.071,-0.525l0.237,0c0.016,0 0.029,0.005 0.04,0.016c0.011,0.011 0.016,0.024 0.016,0.04c0,0.015 -0.005,0.028 -0.016,0.039c-0.011,0.01 -0.024,0.015 -0.04,0.015l-0.237,0c-0.016,0 -0.029,-0.005 -0.04,-0.016c-0.011,-0.011 -0.016,-0.024 -0.016,-0.04c-0,-0.015 0.005,-0.028 0.016,-0.039c0.011,-0.01 0.024,-0.015 0.04,-0.015Zm0.107,-0.125c0.017,0 0.031,0.006 0.042,0.017c0.011,0.012 0.017,0.027 0.017,0.044l-0,0.445c-0,0.009 0.002,0.017 0.005,0.023c0.004,0.006 0.009,0.01 0.015,0.013c0.007,0.003 0.014,0.004 0.021,0.004c0.008,-0 0.015,-0.002 0.022,-0.005c0.007,-0.003 0.014,-0.004 0.023,-0.004c0.009,-0 0.018,0.004 0.025,0.013c0.008,0.009 0.012,0.021 0.012,0.036c-0,0.019 -0.01,0.034 -0.031,0.046c-0.02,0.012 -0.042,0.018 -0.065,0.018c-0.014,-0 -0.03,-0.001 -0.047,-0.004c-0.017,-0.002 -0.033,-0.008 -0.048,-0.017c-0.015,-0.009 -0.027,-0.022 -0.037,-0.041c-0.01,-0.019 -0.015,-0.044 -0.015,-0.077l-0,-0.45c-0,-0.017 0.006,-0.032 0.017,-0.044c0.012,-0.011 0.027,-0.017 0.044,-0.017Z" style="fill:#4a4a4a;fill-rule:nonzero;"/>
        </g>
        <g transform="matrix(48,0,0,48,106.063,28.7491)">
            <path d="M0.503,-0.545c0.017,0 0.032,0.006 0.043,0.017c0.011,0.011 0.017,0.026 0.017,0.044l0,0.423c0,0.017 -0.006,0.032 -0.017,0.044c-0.011,0.011 -0.026,0.017 -0.043,0.017c-0.017,0 -0.032,-0.006 -0.043,-0.017c-0.011,-0.012 -0.017,-0.027 -0.017,-0.044l0,-0.049l0.022,0.009c0,0.009 -0.005,0.019 -0.014,0.032c-0.009,0.012 -0.022,0.024 -0.038,0.036c-0.016,0.012 -0.035,0.022 -0.057,0.031c-0.021,0.008 -0.045,0.012 -0.07,0.012c-0.046,0 -0.088,-0.012 -0.125,-0.035c-0.037,-0.024 -0.067,-0.057 -0.089,-0.098c-0.021,-0.042 -0.032,-0.09 -0.032,-0.144c-0,-0.055 0.011,-0.103 0.032,-0.144c0.022,-0.042 0.051,-0.075 0.088,-0.098c0.037,-0.024 0.077,-0.036 0.122,-0.036c0.029,0 0.055,0.004 0.079,0.013c0.024,0.009 0.045,0.02 0.062,0.033c0.018,0.013 0.032,0.027 0.041,0.041c0.01,0.013 0.015,0.025 0.015,0.034l-0.036,0.013l-0,-0.073c-0,-0.017 0.006,-0.032 0.017,-0.043c0.011,-0.012 0.026,-0.018 0.043,-0.018Zm-0.202,0.445c0.029,0 0.055,-0.007 0.077,-0.022c0.022,-0.015 0.039,-0.035 0.051,-0.06c0.013,-0.025 0.019,-0.054 0.019,-0.085c-0,-0.032 -0.006,-0.061 -0.019,-0.086c-0.012,-0.025 -0.029,-0.045 -0.051,-0.06c-0.022,-0.015 -0.048,-0.022 -0.077,-0.022c-0.029,0 -0.054,0.007 -0.076,0.022c-0.022,0.015 -0.039,0.035 -0.052,0.06c-0.012,0.025 -0.018,0.054 -0.018,0.086c-0,0.031 0.006,0.06 0.018,0.085c0.013,0.025 0.03,0.045 0.052,0.06c0.022,0.015 0.047,0.022 0.076,0.022Z" style="fill:#4a4a4a;fill-rule:nonzero;"/>
        </g>
        <g transform="matrix(48,0,0,48,135.967,28.7491)">
            <path d="M0.342,-0.545c0.047,0 0.089,0.012 0.126,0.035c0.037,0.024 0.066,0.057 0.087,0.098c0.022,0.041 0.033,0.089 0.033,0.144c-0,0.055 -0.011,0.103 -0.033,0.145c-0.021,0.041 -0.05,0.074 -0.087,0.098c-0.036,0.023 -0.077,0.035 -0.122,0.035c-0.027,0 -0.052,-0.004 -0.075,-0.013c-0.023,-0.009 -0.044,-0.02 -0.062,-0.033c-0.017,-0.013 -0.031,-0.027 -0.041,-0.04c-0.009,-0.014 -0.014,-0.026 -0.014,-0.035l0.031,-0.013l0,0.073c-0,0.017 -0.006,0.032 -0.017,0.044c-0.011,0.011 -0.026,0.017 -0.043,0.017c-0.017,0 -0.032,-0.006 -0.043,-0.017c-0.011,-0.011 -0.017,-0.026 -0.017,-0.044l0,-0.628c0,-0.017 0.006,-0.032 0.017,-0.043c0.011,-0.012 0.026,-0.018 0.043,-0.018c0.017,0 0.032,0.006 0.043,0.018c0.011,0.011 0.017,0.026 0.017,0.043l0,0.254l-0.017,-0.009c0,-0.009 0.005,-0.019 0.014,-0.031c0.009,-0.013 0.022,-0.025 0.038,-0.037c0.016,-0.013 0.035,-0.023 0.056,-0.031c0.02,-0.008 0.043,-0.012 0.066,-0.012Zm-0.015,0.11c-0.029,0 -0.055,0.007 -0.077,0.022c-0.022,0.015 -0.039,0.035 -0.051,0.06c-0.013,0.025 -0.019,0.053 -0.019,0.085c0,0.031 0.006,0.06 0.018,0.086c0.013,0.025 0.03,0.045 0.052,0.06c0.022,0.015 0.048,0.022 0.077,0.022c0.029,0 0.055,-0.007 0.077,-0.022c0.021,-0.015 0.038,-0.035 0.05,-0.06c0.013,-0.026 0.019,-0.055 0.019,-0.086c0,-0.032 -0.006,-0.06 -0.019,-0.085c-0.012,-0.025 -0.029,-0.045 -0.05,-0.06c-0.022,-0.015 -0.048,-0.022 -0.077,-0.022Z" style="fill:#4a4a4a;fill-rule:nonzero;"/>
        </g>
        <g transform="matrix(48,0,0,48,165.871,28.7491)">
            <path d="M0.195,-0.061c-0,0.017 -0.006,0.032 -0.018,0.043c-0.011,0.012 -0.026,0.018 -0.043,0.018c-0.017,-0 -0.031,-0.006 -0.042,-0.018c-0.011,-0.011 -0.017,-0.026 -0.017,-0.043l0,-0.618c0,-0.017 0.006,-0.032 0.018,-0.043c0.011,-0.012 0.026,-0.018 0.043,-0.018c0.017,0 0.032,0.006 0.043,0.018c0.011,0.011 0.016,0.026 0.016,0.043l0,0.618Z" style="fill:#4a4a4a;fill-rule:nonzero;"/>
        </g>
        <g transform="matrix(48,0,0,48,178.111,28.7491)">
            <path d="M0.317,0.01c-0.057,0 -0.106,-0.012 -0.148,-0.036c-0.041,-0.023 -0.073,-0.055 -0.096,-0.096c-0.022,-0.041 -0.033,-0.087 -0.033,-0.138c-0,-0.06 0.012,-0.111 0.036,-0.154c0.025,-0.042 0.057,-0.074 0.096,-0.097c0.039,-0.023 0.081,-0.034 0.125,-0.034c0.034,0 0.066,0.007 0.096,0.021c0.031,0.014 0.058,0.033 0.081,0.057c0.023,0.025 0.042,0.053 0.055,0.085c0.014,0.032 0.021,0.066 0.021,0.102c-0.001,0.016 -0.007,0.029 -0.019,0.039c-0.012,0.01 -0.026,0.015 -0.042,0.015l-0.382,0l-0.03,-0.1l0.367,0l-0.022,0.02l-0,-0.027c-0.001,-0.019 -0.008,-0.037 -0.021,-0.052c-0.012,-0.015 -0.027,-0.027 -0.046,-0.036c-0.018,-0.01 -0.037,-0.014 -0.058,-0.014c-0.02,0 -0.039,0.003 -0.056,0.008c-0.017,0.005 -0.032,0.014 -0.045,0.027c-0.013,0.013 -0.023,0.03 -0.03,0.051c-0.007,0.021 -0.011,0.048 -0.011,0.081c-0,0.036 0.007,0.067 0.022,0.092c0.015,0.025 0.035,0.044 0.058,0.057c0.024,0.013 0.049,0.019 0.076,0.019c0.025,0 0.044,-0.002 0.059,-0.006c0.015,-0.004 0.026,-0.009 0.035,-0.014c0.01,-0.006 0.018,-0.011 0.025,-0.015c0.012,-0.006 0.023,-0.009 0.034,-0.009c0.015,0 0.027,0.005 0.036,0.015c0.01,0.01 0.015,0.022 0.015,0.035c-0,0.018 -0.009,0.034 -0.028,0.049c-0.017,0.015 -0.042,0.028 -0.073,0.039c-0.031,0.01 -0.064,0.016 -0.097,0.016Z" style="fill:#4a4a4a;fill-rule:nonzero;"/>
        </g>
        <g transform="matrix(48,0,0,48,206.191,28.7491)">
            <path d="M0.125,-0c-0.017,-0 -0.032,-0.006 -0.043,-0.018c-0.011,-0.011 -0.017,-0.026 -0.017,-0.043l0,-0.413c0,-0.017 0.006,-0.032 0.017,-0.043c0.011,-0.012 0.026,-0.018 0.043,-0.018c0.017,0 0.032,0.006 0.043,0.018c0.011,0.011 0.017,0.026 0.017,0.043l0,0.094l-0.007,-0.067c0.007,-0.016 0.017,-0.03 0.029,-0.042c0.011,-0.013 0.024,-0.023 0.039,-0.031c0.015,-0.009 0.03,-0.015 0.047,-0.019c0.017,-0.004 0.033,-0.006 0.05,-0.006c0.02,0 0.037,0.006 0.051,0.017c0.013,0.011 0.02,0.025 0.02,0.04c0,0.022 -0.006,0.038 -0.017,0.048c-0.011,0.009 -0.024,0.014 -0.037,0.014c-0.013,0 -0.024,-0.002 -0.034,-0.007c-0.011,-0.005 -0.023,-0.007 -0.036,-0.007c-0.012,0 -0.024,0.003 -0.036,0.009c-0.013,0.005 -0.024,0.014 -0.034,0.026c-0.011,0.012 -0.019,0.027 -0.025,0.045c-0.007,0.017 -0.01,0.038 -0.01,0.062l0,0.237c0,0.017 -0.006,0.032 -0.017,0.044c-0.011,0.011 -0.026,0.017 -0.043,0.017Z" style="fill:#5899e4;fill-rule:nonzero;"/>
        </g>
        <g transform="matrix(48,0,0,48,226.783,28.7491)">
            <path d="M0.462,-0.535c0.017,0 0.032,0.006 0.043,0.018c0.011,0.011 0.017,0.026 0.017,0.043l0,0.254c0,0.071 -0.02,0.127 -0.059,0.168c-0.039,0.041 -0.096,0.062 -0.17,0.062c-0.074,0 -0.131,-0.021 -0.17,-0.062c-0.039,-0.041 -0.058,-0.097 -0.058,-0.168l-0,-0.254c-0,-0.017 0.006,-0.032 0.017,-0.043c0.011,-0.012 0.026,-0.018 0.043,-0.018c0.017,0 0.032,0.006 0.043,0.018c0.011,0.011 0.017,0.026 0.017,0.043l-0,0.254c-0,0.041 0.009,0.071 0.027,0.091c0.018,0.019 0.045,0.029 0.081,0.029c0.037,0 0.064,-0.01 0.082,-0.029c0.018,-0.02 0.027,-0.05 0.027,-0.091l-0,-0.254c-0,-0.017 0.006,-0.032 0.017,-0.043c0.011,-0.012 0.026,-0.018 0.043,-0.018Z" style="fill:#206bc4;fill-rule:nonzero;"/>
        </g>
        <g transform="matrix(48,0,0,48,254.719,28.7491)">
            <path d="M0.034,-0.083c-0.007,-0.009 -0.01,-0.021 -0.009,-0.036c0.001,-0.015 0.009,-0.027 0.026,-0.038c0.011,-0.007 0.022,-0.01 0.034,-0.009c0.012,0.002 0.024,0.008 0.035,0.019c0.019,0.019 0.04,0.034 0.061,0.045c0.021,0.011 0.048,0.016 0.08,0.016c0.01,-0.001 0.021,-0.002 0.033,-0.004c0.012,-0.003 0.022,-0.008 0.031,-0.016c0.009,-0.009 0.014,-0.022 0.014,-0.039c-0,-0.015 -0.005,-0.026 -0.015,-0.035c-0.01,-0.009 -0.023,-0.016 -0.04,-0.022c-0.016,-0.006 -0.034,-0.012 -0.054,-0.017c-0.021,-0.006 -0.042,-0.013 -0.064,-0.02c-0.021,-0.007 -0.041,-0.017 -0.059,-0.028c-0.018,-0.012 -0.033,-0.028 -0.044,-0.047c-0.011,-0.019 -0.017,-0.044 -0.017,-0.073c-0,-0.033 0.009,-0.062 0.028,-0.085c0.019,-0.023 0.043,-0.041 0.072,-0.054c0.03,-0.013 0.061,-0.019 0.094,-0.019c0.021,0 0.042,0.003 0.065,0.008c0.023,0.004 0.044,0.012 0.065,0.024c0.021,0.011 0.038,0.025 0.052,0.043c0.007,0.01 0.012,0.022 0.013,0.036c0.001,0.014 -0.005,0.027 -0.019,0.038c-0.01,0.008 -0.022,0.012 -0.035,0.011c-0.013,-0.001 -0.024,-0.006 -0.033,-0.014c-0.011,-0.015 -0.027,-0.026 -0.046,-0.035c-0.019,-0.009 -0.04,-0.013 -0.065,-0.013c-0.01,0 -0.021,0.001 -0.033,0.004c-0.011,0.002 -0.021,0.007 -0.03,0.015c-0.009,0.007 -0.013,0.019 -0.013,0.036c-0,0.015 0.005,0.028 0.015,0.037c0.01,0.009 0.023,0.016 0.04,0.022c0.017,0.005 0.036,0.011 0.055,0.016c0.02,0.005 0.04,0.012 0.061,0.019c0.021,0.007 0.04,0.017 0.057,0.029c0.017,0.012 0.031,0.027 0.042,0.046c0.011,0.019 0.016,0.044 0.016,0.073c-0,0.034 -0.01,0.063 -0.03,0.087c-0.02,0.024 -0.045,0.042 -0.075,0.054c-0.03,0.013 -0.061,0.019 -0.092,0.019c-0.039,-0 -0.079,-0.007 -0.118,-0.021c-0.039,-0.013 -0.072,-0.037 -0.098,-0.072Z" style="fill:#206bc4;fill-rule:nonzero;"/>
        </g>
        <g transform="matrix(48,0,0,48,277.615,28.7491)">
            <path d="M0.071,-0.525l0.237,0c0.016,0 0.029,0.005 0.04,0.016c0.011,0.011 0.016,0.024 0.016,0.04c0,0.015 -0.005,0.028 -0.016,0.039c-0.011,0.01 -0.024,0.015 -0.04,0.015l-0.237,0c-0.016,0 -0.029,-0.005 -0.04,-0.016c-0.011,-0.011 -0.016,-0.024 -0.016,-0.04c-0,-0.015 0.005,-0.028 0.016,-0.039c0.011,-0.01 0.024,-0.015 0.04,-0.015Zm0.107,-0.125c0.017,0 0.031,0.006 0.042,0.017c0.011,0.012 0.017,0.027 0.017,0.044l-0,0.445c-0,0.009 0.002,0.017 0.005,0.023c0.004,0.006 0.009,0.01 0.015,0.013c0.007,0.003 0.014,0.004 0.021,0.004c0.008,-0 0.015,-0.002 0.022,-0.005c0.007,-0.003 0.014,-0.004 0.023,-0.004c0.009,-0 0.018,0.004 0.025,0.013c0.008,0.009 0.012,0.021 0.012,0.036c-0,0.019 -0.01,0.034 -0.031,0.046c-0.02,0.012 -0.042,0.018 -0.065,0.018c-0.014,-0 -0.03,-0.001 -0.047,-0.004c-0.017,-0.002 -0.033,-0.008 -0.048,-0.017c-0.015,-0.009 -0.027,-0.022 -0.037,-0.041c-0.01,-0.019 -0.015,-0.044 -0.015,-0.077l-0,-0.45c-0,-0.017 0.006,-0.032 0.017,-0.044c0.012,-0.011 0.027,-0.017 0.044,-0.017Z" style="fill:#206bc4;fill-rule:nonzero;"/>
        </g>
    </g>
</svg>
